<?xml version="1.0" encoding="utf-8"?>
<!-- Generator: Adobe Illustrator 18.0.0, SVG Export Plug-In . SVG Version: 6.00 Build 0)  -->
<!DOCTYPE svg PUBLIC "-//W3C//DTD SVG 1.1//EN" "http://www.w3.org/Graphics/SVG/1.1/DTD/svg11.dtd">
<svg version="1.1" id="Layer_1" xmlns="http://www.w3.org/2000/svg" xmlns:xlink="http://www.w3.org/1999/xlink" x="0px" y="0px"
	 viewBox="0 0 152 152" enable-background="new 0 0 152 152" xml:space="preserve">
<path fill="#FF0063" d="M152,5.3c0-2.5-2-4.5-4.5-4.5H4.8c-2.5,0-4.5,2-4.5,4.5v142.8c0,2.5,2,4.5,4.5,4.5h106.3l40.9-40.9V5.3z"/>
<polygon opacity="0.3" points="112.3,113.1 72.9,152.5 111.1,152.5 151.9,111.7 "/>
<path fill="#FF5BA3" d="M152,111.6h-36.4c-2.5,0-4.5,2-4.5,4.5v36.4L152,111.6z"/>
<path fill="#FFFFFF" d="M106,54.3l0,45.7c0,0.9-0.7,1.6-1.6,1.6H92.5c-0.9,0-1.6-0.7-1.6-1.6c0-5.4,0-22.1,0-22.8
	c-4.9,6.7-9.7,13.3-14.7,20.1c-1-1.3-14.3-20-15-21.2c0,0.9,0,18.4-0.1,23.9c0,0.9-0.7,1.6-1.6,1.6H48c-0.9,0-1.6-0.7-1.6-1.6
	l0-45.8c0-0.9,0.7-1.6,1.6-1.6l10.5,0c0.5,0,1,0.3,1.3,0.7l16.2,22.3l16.4-22.3c0.3-0.4,0.8-0.7,1.3-0.7h10.6
	C105.3,52.7,106,53.4,106,54.3z"/>
</svg>
