<svg version="1.1" xmlns="http://www.w3.org/2000/svg" x="0" y="0" viewBox="0 0 819.189 152.231" xml:space="preserve"><path fill="#FF0061" d="M819.19 149.126c0 1.65-1.35 3-3 3H670.494c-1.65 0-3-1.35-3-3V3.436c0-1.65 1.35-3 3-3H816.19c1.65 0 3 1.35 3 3v145.69zM151.694 148.814c0 1.65-1.35 3-3 3H3c-1.65 0-3-1.35-3-3V3.124c0-1.65 1.35-3 3-3h145.694c1.65 0 3 1.35 3 3v145.69zM484.625 4.458c0-2.452-2.006-4.458-4.458-4.458H337.39c-2.453 0-4.46 2.006-4.46 4.458v142.775c0 2.452 2.007 4.458 4.46 4.458h106.33l40.905-40.903V4.457z"/><path opacity=".3" d="M444.79 112.264l-39.417 39.427h38.348l40.905-40.903"/><path fill="#FF5BA0" d="M484.625 110.787H448.18c-2.453 0-4.46 2.006-4.46 4.458v36.446l40.905-40.903z"/><path fill="#FF0061" d="M318.168 149.23c0 1.65-1.35 3-3 3H169.474c-1.65 0-3-1.35-3-3V3.54c0-1.65 1.35-3 3-3h145.694c1.65 0 3 1.35 3 3v145.69zM651.19 149.23c0 1.65-1.35 3-3 3H502.5c-1.65 0-3-1.35-3-3V3.54c0-1.65 1.35-3 3-3h145.694c1.65 0 3 1.35 3 3v145.69z"/>
<path fill="#FFF" d="M104.853 53.475l.015 45.735c0 .905-.733 1.638-1.638 1.638H91.367c-.905 0-1.638-.726-1.638-1.63l.01-22.802-14.652 20.11c-.98-1.296-14.293-19.966-15.013-21.16 0 .855-.04 18.44-.05 23.938-.003.903-.736 1.628-1.64 1.628h-11.48c-.903 0-1.636-.733-1.637-1.637l-.023-45.81c0-.903.732-1.637 1.636-1.638l10.544-.01c.524 0 1.017.25 1.326.675l16.2 22.275 16.38-22.283c.31-.42.8-.668 1.32-.668h10.565c.905.002 1.638.735 1.638 1.64zM410.523 51.293c2.288 0 5.542.5 6.798.81 4.93 1.21 8.97 3.778 11.677 8.128 4.336 6.967 3.49 17.192-4.082 22.323-.803.544-1.585 1.12-2.546 1.8.22.392 7.113 11.09 9.507 14.803.35.54-.04 1.254-.685 1.253l-15.093-.012c-.61 0-1.175-.31-1.503-.822L406.58 87.07h-6.386l-.007 11.515c0 .985-.8 1.784-1.785 1.785l-11.285.006c-.986 0-1.786-.8-1.787-1.785l-.02-45.51c0-.987.8-1.787 1.787-1.787h23.426zm-10.233 23.81s7.12.025 10.336.025c.876 0 1.907-.238 2.706-.633 1.938-.958 2.958-2.835 2.958-5.02 0-2.44-.917-3.647-2.792-4.73-1.1-.636-2.176-.797-3.347-.797-3.282 0-6.485.01-9.85.01.002 3.774-.01 11.146-.01 11.146zM266.27 51.393c.978 0 1.77.787 1.77 1.766.002 4.905.005 18.788.005 25.596-.178 5.988-2.114 11.485-6.49 15.83-3.633 3.61-8.157 5.43-13.144 6.31-3.05.54-6.124.58-9.167.35-6.41-.487-12.274-2.433-16.824-7.287-3.048-3.25-4.81-7.157-5.462-11.517-.348-2.328-.438-4.71-.456-7.067-.045-5.716-.006-17.71.01-22.22.005-.975.797-1.762 1.773-1.762h11.2c.98 0 1.774.79 1.773 1.77-.002 4.485-.002 16.34.055 21.988.026 2.563.22 5.146 1.223 7.566.85 2.048 2.156 3.65 4.175 4.752 2.688 1.465 5.56 1.492 8.355 1.02 3.81-.642 6.356-3.048 7.36-6.838.353-1.328.526-2.74.535-4.117 0-6.295.01-19.588.016-24.375 0-.978.794-1.765 1.772-1.765h11.52zM582.202 51.83l21.843 47.52c.334.726-.195 1.554-.995 1.556l-13.215.03c-.878.003-1.672-.525-2.01-1.336l-2.045-4.923h-21.17l-2.13 4.938c-.344.796-1.128 1.312-1.996 1.31l-13.212-.022c-.802 0-1.33-.834-.993-1.56l22.097-47.513h13.825zM580.3 82.664l-5.127-13.57-5.176 13.57H580.3zM739.416 53.65l.018 34.594 20.774.02c1 0 1.81.81 1.81 1.812v9c0 1.002-.81 1.813-1.813 1.813l-33.768-.02c-1 0-1.812-.812-1.812-1.813l.017-45.407c0-1 .812-1.812 1.813-1.812h11.147c1.002 0 1.814.81 1.814 1.81z"/></svg>
